<?xml version="1.0" standalone="no"?>
<!DOCTYPE svg PUBLIC "-//W3C//DTD SVG 20010904//EN"
 "http://www.w3.org/TR/2001/REC-SVG-20010904/DTD/svg10.dtd">
<svg version="1.0" xmlns="http://www.w3.org/2000/svg"
 width="512.000000pt" height="512.000000pt" viewBox="0 0 512.000000 512.000000"
 preserveAspectRatio="xMidYMid meet">
<metadata>
Created by potrace 1.11, written by Peter Selinger 2001-2013
</metadata>
<g transform="translate(0.000000,512.000000) scale(0.100000,-0.100000)"
fill="#000000" stroke="none">
<path d="M4666 5106 c-171 -63 -217 -285 -82 -404 19 -16 45 -33 58 -37 13 -4
25 -11 28 -15 4 -7 5 -1143 1 -1160 -1 -3 -19 36 -40 85 -39 92 -117 244 -149
293 -10 15 -36 54 -58 87 -246 376 -666 706 -1095 861 -158 57 -368 107 -499
119 -41 4 -78 9 -82 11 -21 13 -403 5 -483 -10 -11 -2 -42 -7 -70 -10 -187
-27 -444 -110 -634 -205 -116 -58 -272 -150 -291 -171 -3 -3 -21 -17 -40 -30
-279 -191 -564 -537 -717 -868 -24 -53 -48 -106 -53 -117 -36 -79 -112 -348
-126 -444 -2 -20 -7 -46 -9 -57 -20 -91 -28 -439 -13 -574 24 -219 84 -447
174 -656 20 -47 33 -89 28 -93 -5 -5 -81 -34 -169 -65 -88 -32 -170 -64 -182
-71 -49 -32 -26 -97 109 -313 52 -83 161 -239 177 -252 4 -3 26 -30 51 -60
113 -138 261 -278 435 -411 310 -236 767 -437 1125 -493 82 -13 168 -26 210
-32 75 -10 450 -12 525 -3 39 5 91 11 116 13 26 3 57 7 70 10 13 3 35 8 49 10
210 34 452 110 658 207 46 21 85 39 87 39 2 0 48 25 102 57 442 254 782 595
1030 1032 45 79 54 102 49 130 -6 37 -22 52 -75 71 -20 7 -54 21 -76 30 -22
10 -83 35 -137 56 l-96 38 25 55 c59 133 132 341 148 422 27 133 42 225 51
304 3 28 7 523 9 1100 2 578 4 1053 4 1057 1 4 16 14 34 22 45 18 90 64 117
116 56 109 2 257 -114 315 -43 22 -134 27 -180 11z m124 -141 c62 -32 72 -111
20 -157 -54 -50 -138 -31 -159 35 -15 45 -6 78 29 110 34 30 67 34 110 12z
m-1980 -170 c19 -3 64 -10 100 -16 247 -41 498 -134 718 -266 88 -52 254 -171
313 -225 125 -112 238 -235 320 -348 274 -377 414 -802 410 -1245 -2 -156 -11
-287 -26 -345 -2 -8 -7 -35 -10 -60 -7 -48 -45 -190 -76 -282 -154 -459 -493
-875 -926 -1136 -315 -190 -679 -293 -1043 -296 -128 0 -325 10 -340 19 -3 1
-25 6 -50 9 -25 3 -90 17 -145 30 -600 146 -1121 566 -1403 1131 -95 190 -176
466 -198 670 -3 33 -8 74 -10 90 -5 41 -5 304 0 335 3 14 7 52 10 85 19 204
99 471 203 680 137 275 363 550 607 740 114 88 314 209 431 259 50 21 104 45
120 52 101 43 377 108 510 120 39 4 72 8 74 10 5 5 373 -4 411 -11z m-2166
-3305 c345 -543 925 -928 1546 -1025 25 -4 52 -9 60 -10 121 -22 492 -23 605
-1 11 2 40 7 65 11 102 16 294 66 401 105 314 116 591 292 829 530 135 135
231 255 325 408 28 45 43 61 54 57 9 -3 73 -29 143 -57 l127 -52 -21 -35
c-261 -437 -582 -748 -1020 -989 -229 -126 -590 -243 -855 -276 -164 -21 -467
-27 -608 -12 -462 49 -906 220 -1265 489 -52 39 -100 76 -107 81 -288 259
-453 457 -591 707 l-31 56 137 50 c75 28 140 51 143 52 4 0 32 -39 63 -89z"/>
<path d="M2320 4263 c-584 -72 -1091 -483 -1288 -1043 -53 -154 -78 -279 -87
-455 -5 -82 -3 -93 15 -113 43 -46 119 -13 121 52 4 184 28 318 84 476 108
307 335 582 623 757 125 76 340 157 467 177 17 2 50 8 75 12 46 7 103 11 177
13 72 2 106 61 64 112 -16 21 -28 24 -83 24 -34 1 -110 -5 -168 -12z"/>
</g>
</svg>
